<?xml version="1.0" encoding="utf-8"?>
<!-- Generator: Adobe Illustrator 18.0.0, SVG Export Plug-In . SVG Version: 6.00 Build 0)  -->
<!DOCTYPE svg PUBLIC "-//W3C//DTD SVG 1.1//EN" "http://www.w3.org/Graphics/SVG/1.1/DTD/svg11.dtd">
<svg version="1.1" id="Layer_1" xmlns="http://www.w3.org/2000/svg" xmlns:xlink="http://www.w3.org/1999/xlink" x="0px" y="0px"
	 width="841.9px" height="313.9px" viewBox="0 0 841.9 313.9" enable-background="new 0 0 841.9 313.9" xml:space="preserve">
<g>
	<path fill="#5FB2E4" d="M381.5,133.6h-10.1v-9.1h10.1v-2.9c0-26.6,18.8-30,27.8-30c3,0,5,0.3,5,0.3v9.8c0,0-1.4-0.3-3.9-0.3
		c-6.1,0-18,2.2-18,20.2v2.9H413v9.1h-20.5v71.6h-10.9V133.6z"/>
	<path fill="#5FB2E4" d="M436.7,137.4c0-2.2-1.3-3.5-3.5-3.5h-6.7v-9.5h11.2c6.7,0,9.8,2.9,9.8,9v3.7c0,3.2-0.3,5.8-0.3,5.8h0.3
		c2.9-7.4,13.2-20.4,32.1-20.4c20.1,0,27.1,11.4,27.1,31.3v38.4c0,2.4,1.3,3.5,3.5,3.5h6.7v9.5h-11.4c-6.9,0-9.8-2.9-9.8-9.8v-38.7
		c0-12.7-1.9-23.9-17.5-23.9c-13.8,0-25.7,9.5-29.4,22.8c-1,3.4-1.3,7.1-1.3,10.9v38.7h-10.9V137.4z"/>
	<path fill="#5FB2E4" d="M534,137.4c0-2.2-1.3-3.5-3.5-3.5h-6.7v-9.5h11.4c6.9,0,9.8,2.9,9.8,9.5v39c0,12.7,2.1,23.9,17.7,23.9
		c18.3,0,29.7-16.2,29.7-33.7v-38.7h10.9v67.7c0,2.4,1.3,3.5,3.5,3.5h6.7v9.5h-11.1c-6.7,0-9.8-2.9-9.8-9v-3.7
		c0-3.2,0.3-5.8,0.3-5.8h-0.3c-3.2,7.9-13.8,20.4-31.5,20.4c-19.1,0-27.1-10.3-27.1-31.3V137.4z"/>
	<path fill="#5FB2E4" d="M658.8,122.5c21.7,0,26.8,13.8,26.8,13.8h0.3c0,0,0-1.4,0-3c0-5.8,2.6-8.8,9.1-8.8h11.2v9.5h-6.6
		c-2.2,0-3.5,1.1-3.5,3.5v65.8c0,25.7-18.9,35.6-38.8,35.6c-9.1,0-18.5-2.4-26.3-6.4l4.2-9.1c0,0,9.9,5.6,21.8,5.6
		c15.7,0,28.2-7.4,28.2-25.4v-7.1c0-3,0.2-5.8,0.2-5.8h-0.3c-4.8,8.8-12.8,14-25.4,14c-21.7,0-35.9-17.2-35.9-41.4
		S637.2,122.5,658.8,122.5z M685.5,163.3c0-23.6-11.2-30.8-25.5-30.8c-15.7,0-24.9,11.4-24.9,30.7c0,19.3,10.4,31.8,26.3,31.8
		C674.2,194.9,685.5,187,685.5,163.3z"/>
	<path fill="#5FB2E4" d="M751.7,122.5c21.7,0,26.8,13.8,26.8,13.8h0.3c0,0,0-1.4,0-3c0-5.8,2.6-8.8,9.1-8.8h11.2v9.5h-6.6
		c-2.2,0-3.5,1.1-3.5,3.5v65.8c0,25.7-18.9,35.6-38.8,35.6c-9.1,0-18.5-2.4-26.3-6.4l4.2-9.1c0,0,9.9,5.6,21.8,5.6
		c15.7,0,28.2-7.4,28.2-25.4v-7.1c0-3,0.2-5.8,0.2-5.8h-0.3c-4.8,8.8-12.8,14-25.4,14c-21.7,0-35.9-17.2-35.9-41.4
		S730.1,122.5,751.7,122.5z M778.4,163.3c0-23.6-11.2-30.8-25.5-30.8c-15.7,0-24.9,11.4-24.9,30.7c0,19.3,10.4,31.8,26.3,31.8
		C767.2,194.9,778.4,187,778.4,163.3z"/>
</g>
<g>
	<g>
		<g>
			<g>
				<path fill="#5FB2E4" d="M130.3,215.3c-0.5,0-1-0.2-1.4-0.6c-0.8-0.8-0.8-2,0-2.7l110.7-110.7c0.8-0.8,2-0.8,2.7,0
					c0.8,0.8,0.8,2,0,2.7L131.7,214.7C131.3,215.1,130.8,215.3,130.3,215.3z"/>
			</g>
			<g>
				<path fill="#5FB2E4" d="M241,215.3c-0.5,0-1-0.2-1.4-0.6L128.9,104c-0.8-0.8-0.8-2,0-2.7c0.8-0.8,2-0.8,2.7,0L242.4,212
					c0.8,0.8,0.8,2,0,2.7C242,215.1,241.5,215.3,241,215.3z"/>
			</g>
			<g>
				<g>
					<path fill="#5FB2E4" d="M185.7,145.7c-0.5,0-1-0.4-1-1V92.6l-10.1-12.9c-0.3-0.4-0.3-1,0.2-1.4c0.4-0.3,1-0.3,1.4,0.2
						l10.4,13.1c0.1,0.2,0.2,0.4,0.2,0.6v52.4C186.6,145.2,186.2,145.7,185.7,145.7z"/>
				</g>
				<g>
					<path fill="#5FB2E4" d="M185.7,93.5c-0.2,0-0.4-0.1-0.6-0.2c-0.4-0.3-0.5-0.9-0.2-1.4l10.6-13.4c0.3-0.4,0.9-0.5,1.4-0.2
						c0.4,0.3,0.5,0.9,0.2,1.4l-10.6,13.4C186.3,93.4,186,93.5,185.7,93.5z"/>
				</g>
			</g>
			<g>
				<g>
					<path fill="#5FB2E4" d="M196.4,238.4c-0.3,0-0.6-0.1-0.8-0.4l-10.4-13.1c-0.1-0.2-0.2-0.4-0.2-0.6v-52.4c0-0.5,0.4-1,1-1
						c0.5,0,1,0.4,1,1V224l10.1,12.9c0.3,0.4,0.3,1-0.2,1.4C196.8,238.3,196.6,238.4,196.4,238.4z"/>
				</g>
				<g>
					<path fill="#5FB2E4" d="M175.3,238.4c-0.2,0-0.4-0.1-0.6-0.2c-0.4-0.3-0.5-0.9-0.2-1.4l10.6-13.4c0.3-0.4,0.9-0.5,1.4-0.2
						c0.4,0.3,0.5,0.9,0.2,1.4L176.1,238C175.9,238.3,175.6,238.4,175.3,238.4z"/>
				</g>
			</g>
			<g>
				<g>
					<path fill="#5FB2E4" d="M106.7,169.8c-0.3,0-0.6-0.1-0.8-0.4c-0.3-0.4-0.3-1,0.2-1.4l13.1-10.4c0.2-0.1,0.4-0.2,0.6-0.2h52.4
						c0.5,0,1,0.4,1,1c0,0.5-0.4,1-1,1h-52.1l-12.9,10.1C107.1,169.7,106.9,169.8,106.7,169.8z"/>
				</g>
				<g>
					<path fill="#5FB2E4" d="M120.1,159.4c-0.2,0-0.4-0.1-0.6-0.2l-13.4-10.6c-0.4-0.3-0.5-0.9-0.2-1.4c0.3-0.4,0.9-0.5,1.4-0.2
						l13.4,10.6c0.4,0.3,0.5,0.9,0.2,1.4C120.7,159.3,120.4,159.4,120.1,159.4z"/>
				</g>
			</g>
			<g>
				<g>
					<path fill="#5FB2E4" d="M251.8,159.1h-52.4c-0.5,0-1-0.4-1-1c0-0.5,0.4-1,1-1h52.1l12.9-10.1c0.4-0.3,1-0.3,1.4,0.2
						c0.3,0.4,0.3,1-0.2,1.4l-13.1,10.4C252.3,159,252.1,159.1,251.8,159.1z"/>
				</g>
				<g>
					<path fill="#5FB2E4" d="M265,169.8c-0.2,0-0.4-0.1-0.6-0.2L251,158.9c-0.4-0.3-0.5-0.9-0.2-1.4c0.3-0.4,0.9-0.5,1.4-0.2
						l13.4,10.6c0.4,0.3,0.5,0.9,0.2,1.4C265.5,169.7,265.3,169.8,265,169.8z"/>
				</g>
			</g>
		</g>
		<g>
			<g>
				<g>
					<path fill="#5FB2E4" d="M172.1,17.8c0.8,0.2,1.5,0.7,2.1,1.7c0.8,1.4,12,21.4,12.1,21.6c0.2,0.3,0.1,0.6-0.2,0.8
						c-0.3,0.2-0.6,0.1-0.8-0.2c-0.1-0.2-11.4-20.2-12.1-21.6c-0.7-1.2-1.8-1.3-2.3-1.1c-0.3,0.1-0.6-0.1-0.7-0.4
						c-0.1-0.3,0.1-0.6,0.4-0.7C171,17.7,171.6,17.7,172.1,17.8z"/>
				</g>
				<g>
					<path fill="#5FB2E4" d="M199.3,17.7c-0.8,0.2-1.5,0.8-2.1,1.7c-0.8,1.4-11.8,21.5-11.9,21.7c-0.2,0.3-0.1,0.6,0.2,0.8
						c0.3,0.2,0.6,0.1,0.8-0.2c0.1-0.2,11.1-20.3,11.9-21.7c0.7-1.3,1.8-1.3,2.3-1.2c0.3,0.1,0.6-0.1,0.7-0.4
						c0.1-0.3-0.1-0.6-0.4-0.7C200.4,17.6,199.9,17.5,199.3,17.7z"/>
				</g>
			</g>
			<g>
				<g>
					<path fill="#5FB2E4" d="M189.1,17.2c0.7,0.3,1.4,0.9,1.9,1.9c0.6,1.5,9.4,22.7,9.5,22.9c0.1,0.3,0,0.6-0.3,0.8
						c-0.3,0.1-0.6,0-0.8-0.3c-0.1-0.2-8.8-21.4-9.5-22.9c-0.6-1.3-1.6-1.5-2.1-1.4c-0.3,0.1-0.6-0.2-0.7-0.5
						c-0.1-0.3,0.2-0.6,0.5-0.7C188,16.9,188.5,17,189.1,17.2z"/>
				</g>
				<g>
					<path fill="#5FB2E4" d="M216.1,20.3c-0.8,0.1-1.6,0.6-2.3,1.4c-0.9,1.3-14.3,19.9-14.4,20.1c-0.2,0.3-0.1,0.6,0.1,0.8
						c0.3,0.2,0.6,0.1,0.8-0.1c0.1-0.2,13.5-18.8,14.4-20.1c0.8-1.2,1.9-1.1,2.4-0.9c0.3,0.1,0.6,0,0.8-0.3c0.1-0.3,0-0.6-0.3-0.8
						C217.2,20.3,216.6,20.3,216.1,20.3z"/>
				</g>
			</g>
			<g>
				<g>
					<path fill="#5FB2E4" d="M206,18.6c0.7,0.4,1.3,1.1,1.6,2.1c0.4,1.5,6.6,23.6,6.6,23.9c0.1,0.3-0.1,0.6-0.4,0.7
						c-0.3,0.1-0.6-0.1-0.7-0.4c-0.1-0.2-6.2-22.3-6.6-23.8c-0.4-1.4-1.5-1.7-2-1.7c-0.3,0-0.6-0.2-0.6-0.5c0-0.3,0.2-0.6,0.5-0.6
						C204.9,18.2,205.5,18.4,206,18.6z"/>
				</g>
				<g>
					<path fill="#5FB2E4" d="M232.4,25c-0.8,0-1.7,0.4-2.4,1.2c-1.1,1.2-16.6,18.1-16.8,18.2c-0.2,0.2-0.2,0.6,0,0.8
						c0.2,0.2,0.6,0.2,0.8,0c0.2-0.2,15.7-17.1,16.8-18.2c1-1.1,2.1-0.8,2.5-0.6c0.3,0.2,0.6,0.1,0.8-0.2c0.2-0.3,0.1-0.6-0.2-0.8
						C233.5,25.1,233,25,232.4,25z"/>
				</g>
			</g>
			<g>
				<g>
					<path fill="#5FB2E4" d="M222.6,22.1c0.6,0.5,1.2,1.2,1.3,2.3c0.2,1.6,3.7,24.2,3.7,24.5c0,0.3-0.2,0.6-0.5,0.7
						c-0.3,0-0.6-0.2-0.7-0.5c0-0.2-3.5-22.9-3.7-24.5c-0.2-1.4-1.2-1.9-1.7-1.9c-0.3,0-0.6-0.3-0.5-0.6c0-0.3,0.3-0.6,0.6-0.5
						C221.6,21.6,222.1,21.7,222.6,22.1z"/>
				</g>
				<g>
					<path fill="#5FB2E4" d="M248,31.6c-0.8-0.1-1.7,0.2-2.5,0.9c-1.2,1-18.6,15.9-18.8,16.1c-0.2,0.2-0.3,0.6-0.1,0.8
						c0.2,0.2,0.6,0.3,0.8,0.1c0.2-0.2,17.6-15.1,18.8-16.1c1.1-0.9,2.2-0.6,2.6-0.3c0.3,0.2,0.6,0.1,0.8-0.1
						c0.2-0.3,0.1-0.6-0.1-0.8C249.1,31.8,248.6,31.6,248,31.6z"/>
				</g>
			</g>
			<g>
				<g>
					<path fill="#5FB2E4" d="M238.6,27.5c0.6,0.5,1,1.4,1.1,2.5c0.1,1.6,0.7,24.5,0.8,24.7c0,0.3-0.2,0.6-0.6,0.6
						c-0.3,0-0.6-0.2-0.6-0.6c0-0.2-0.7-23.2-0.8-24.7c-0.1-1.4-1-2-1.5-2.1c-0.3-0.1-0.5-0.4-0.5-0.7c0.1-0.3,0.4-0.5,0.7-0.5
						C237.7,26.9,238.2,27.1,238.6,27.5z"/>
				</g>
				<g>
					<path fill="#5FB2E4" d="M262.8,40c-0.8-0.2-1.7,0-2.6,0.6c-1.3,0.9-20.4,13.6-20.6,13.7c-0.3,0.2-0.3,0.5-0.2,0.8
						c0.2,0.3,0.5,0.3,0.8,0.2c0.2-0.1,19.3-12.8,20.6-13.7c1.2-0.8,2.2-0.3,2.6,0c0.2,0.2,0.6,0.2,0.8,0c0.2-0.2,0.2-0.6,0-0.8
						C263.8,40.3,263.3,40.1,262.8,40z"/>
				</g>
			</g>
			<g>
				<g>
					<path fill="#5FB2E4" d="M253.9,34.8c0.5,0.6,0.8,1.5,0.8,2.6c-0.1,1.6-2.2,24.4-2.2,24.7c0,0.3-0.3,0.6-0.6,0.5
						c-0.3,0-0.6-0.3-0.5-0.6c0-0.2,2.1-23.1,2.2-24.7c0.1-1.4-0.8-2.1-1.2-2.2c-0.3-0.1-0.5-0.4-0.4-0.7c0.1-0.3,0.4-0.5,0.7-0.4
						C253.1,34.1,253.6,34.4,253.9,34.8z"/>
				</g>
				<g>
					<path fill="#5FB2E4" d="M276.4,50.1c-0.8-0.3-1.7-0.2-2.7,0.2c-1.4,0.7-21.9,11-22.1,11.1c-0.3,0.1-0.4,0.5-0.3,0.8
						c0.1,0.3,0.5,0.4,0.8,0.3c0.2-0.1,20.7-10.4,22.1-11.1c1.3-0.6,2.2-0.1,2.5,0.3c0.2,0.2,0.6,0.3,0.8,0.1
						c0.3-0.2,0.3-0.6,0.1-0.8C277.4,50.6,276.9,50.3,276.4,50.1z"/>
				</g>
			</g>
			<g>
				<g>
					<path fill="#5FB2E4" d="M268.3,43.9c0.4,0.7,0.7,1.6,0.4,2.6c-0.3,1.6-5.1,24-5.2,24.2c-0.1,0.3-0.4,0.5-0.7,0.4
						c-0.3-0.1-0.5-0.4-0.4-0.7c0-0.2,4.9-22.7,5.2-24.2c0.3-1.4-0.5-2.2-1-2.4c-0.3-0.1-0.4-0.5-0.3-0.8c0.1-0.3,0.5-0.4,0.8-0.3
						C267.5,43.1,267.9,43.4,268.3,43.9z"/>
				</g>
				<g>
					<path fill="#5FB2E4" d="M288.7,61.8c-0.7-0.3-1.6-0.4-2.7-0.1c-1.5,0.5-23.1,8.3-23.3,8.4c-0.3,0.1-0.5,0.4-0.3,0.7
						c0.1,0.3,0.4,0.5,0.7,0.3c0.2-0.1,21.8-7.9,23.3-8.4c1.4-0.5,2.2,0.2,2.5,0.6c0.2,0.3,0.5,0.4,0.8,0.2c0.3-0.2,0.4-0.5,0.2-0.8
						C289.6,62.4,289.2,62,288.7,61.8z"/>
				</g>
			</g>
			<g>
				<g>
					<path fill="#5FB2E4" d="M281.4,54.6c0.4,0.7,0.5,1.6,0.1,2.7c-0.5,1.5-8,23.2-8.1,23.4c-0.1,0.3-0.4,0.5-0.7,0.4
						c-0.3-0.1-0.5-0.4-0.4-0.7c0.1-0.2,7.5-21.9,8-23.4c0.5-1.4-0.2-2.2-0.7-2.5c-0.3-0.2-0.4-0.5-0.2-0.8c0.2-0.3,0.5-0.4,0.8-0.2
						C280.7,53.7,281.1,54.1,281.4,54.6z"/>
				</g>
				<g>
					<path fill="#5FB2E4" d="M299.5,74.8c-0.7-0.4-1.6-0.6-2.6-0.4c-1.6,0.3-23.9,5.5-24.1,5.5c-0.3,0.1-0.5,0.4-0.4,0.7
						c0.1,0.3,0.4,0.5,0.7,0.4c0.2-0.1,22.6-5.2,24.1-5.5c1.4-0.3,2.2,0.5,2.4,0.9c0.1,0.3,0.5,0.4,0.8,0.3c0.3-0.1,0.4-0.5,0.3-0.8
						C300.4,75.6,300,75.1,299.5,74.8z"/>
				</g>
			</g>
			<g>
				<g>
					<path fill="#5FB2E4" d="M293.1,66.9c0.3,0.7,0.3,1.7-0.2,2.7c-0.7,1.4-10.7,22.1-10.8,22.3c-0.1,0.3-0.5,0.4-0.8,0.3
						c-0.3-0.1-0.4-0.5-0.3-0.8c0.1-0.2,10.1-20.8,10.8-22.3c0.6-1.3,0-2.2-0.4-2.5c-0.3-0.2-0.3-0.6-0.1-0.8
						c0.2-0.3,0.6-0.3,0.8-0.1C292.6,65.9,292.9,66.3,293.1,66.9z"/>
				</g>
				<g>
					<path fill="#5FB2E4" d="M308.7,89.1c-0.6-0.5-1.5-0.8-2.6-0.7c-1.6,0.2-24.4,2.6-24.6,2.6c-0.3,0-0.6,0.3-0.5,0.6
						c0,0.3,0.3,0.5,0.6,0.5c0.2,0,23-2.4,24.6-2.6c1.4-0.1,2.1,0.7,2.3,1.2c0.1,0.3,0.4,0.5,0.7,0.4c0.3-0.1,0.5-0.4,0.4-0.7
						C309.5,89.9,309.1,89.5,308.7,89.1z"/>
				</g>
			</g>
			<g>
				<g>
					<path fill="#5FB2E4" d="M303.3,80.4c0.2,0.8,0.1,1.7-0.5,2.6c-0.9,1.3-13.3,20.6-13.4,20.8c-0.2,0.3-0.5,0.3-0.8,0.2
						c-0.3-0.2-0.3-0.5-0.2-0.8c0.1-0.2,12.6-19.5,13.4-20.8c0.8-1.2,0.3-2.2-0.1-2.6c-0.2-0.2-0.2-0.6,0-0.8c0.2-0.2,0.6-0.2,0.8,0
						C302.9,79.4,303.1,79.9,303.3,80.4z"/>
				</g>
				<g>
					<path fill="#5FB2E4" d="M316.1,104.4c-0.5-0.6-1.4-1-2.5-1c-1.6,0-24.5-0.4-24.8-0.4c-0.3,0-0.6,0.3-0.6,0.6
						c0,0.3,0.3,0.6,0.6,0.6c0.2,0,23.2,0.4,24.8,0.4c1.4,0,2,1,2.1,1.5c0.1,0.3,0.4,0.5,0.7,0.5c0.3-0.1,0.5-0.4,0.5-0.7
						C316.7,105.3,316.5,104.8,316.1,104.4z"/>
				</g>
			</g>
			<g>
				<g>
					<path fill="#5FB2E4" d="M311.7,95.1c0.1,0.8-0.1,1.7-0.8,2.5c-1,1.2-15.7,18.9-15.8,19.1c-0.2,0.2-0.6,0.3-0.8,0.1
						c-0.2-0.2-0.3-0.6-0.1-0.8c0.2-0.2,14.8-17.8,15.8-19c0.9-1.1,0.6-2.2,0.2-2.6c-0.2-0.2-0.2-0.6,0.1-0.8
						c0.3-0.2,0.6-0.2,0.8,0.1C311.5,94.1,311.7,94.6,311.7,95.1z"/>
				</g>
				<g>
					<path fill="#5FB2E4" d="M321.6,120.5c-0.5-0.6-1.2-1.2-2.3-1.3c-1.6-0.2-24.3-3.3-24.5-3.4c-0.3,0-0.6,0.2-0.7,0.5
						c0,0.3,0.2,0.6,0.5,0.7c0.2,0,23,3.1,24.5,3.4c1.4,0.2,1.9,1.2,1.9,1.7c0,0.3,0.3,0.6,0.6,0.5c0.3,0,0.6-0.3,0.5-0.6
						C322.1,121.4,321.9,120.9,321.6,120.5z"/>
				</g>
			</g>
			<g>
				<g>
					<path fill="#5FB2E4" d="M318.4,110.7c0,0.8-0.3,1.7-1.1,2.4c-1.1,1.1-17.8,16.8-18,17c-0.2,0.2-0.6,0.2-0.8,0
						c-0.2-0.2-0.2-0.6,0-0.8c0.2-0.2,16.8-15.9,18-17c1-1,0.8-2.1,0.6-2.5c-0.2-0.3-0.1-0.6,0.2-0.8c0.3-0.2,0.6-0.1,0.8,0.2
						C318.2,109.6,318.4,110.2,318.4,110.7z"/>
				</g>
				<g>
					<path fill="#5FB2E4" d="M325.1,137.1c-0.4-0.7-1.1-1.3-2.2-1.6c-1.5-0.4-23.7-6.2-23.9-6.3c-0.3-0.1-0.6,0.1-0.7,0.4
						c-0.1,0.3,0.1,0.6,0.4,0.7c0.2,0.1,22.4,5.9,23.9,6.3c1.4,0.4,1.7,1.4,1.7,1.9c0,0.3,0.2,0.6,0.6,0.6c0.3,0,0.6-0.2,0.6-0.6
						C325.5,138.1,325.4,137.6,325.1,137.1z"/>
				</g>
			</g>
			<g>
				<g>
					<path fill="#5FB2E4" d="M323.1,127c-0.1,0.8-0.5,1.6-1.4,2.3c-1.3,1-19.7,14.6-19.9,14.7c-0.3,0.2-0.6,0.1-0.8-0.1
						c-0.2-0.3-0.1-0.6,0.1-0.8c0.2-0.1,18.6-13.8,19.9-14.7c1.2-0.9,1.1-2,0.9-2.4c-0.1-0.3,0-0.6,0.3-0.8c0.3-0.1,0.6,0,0.8,0.3
						C323.1,125.9,323.2,126.5,323.1,127z"/>
				</g>
				<g>
					<path fill="#5FB2E4" d="M326.6,154c-0.3-0.7-0.9-1.4-2-1.8c-1.5-0.6-22.8-9-23-9.1c-0.3-0.1-0.6,0-0.8,0.3
						c-0.1,0.3,0,0.6,0.3,0.8c0.2,0.1,21.5,8.5,23,9.1c1.3,0.5,1.5,1.6,1.4,2.1c-0.1,0.3,0.2,0.6,0.5,0.7c0.3,0.1,0.6-0.2,0.7-0.5
						C326.9,155,326.8,154.5,326.6,154z"/>
				</g>
			</g>
			<g>
				<g>
					<path fill="#5FB2E4" d="M325.8,143.8c-0.2,0.8-0.7,1.5-1.7,2.1c-1.4,0.8-21.3,12.1-21.5,12.2c-0.3,0.2-0.6,0.1-0.8-0.2
						c-0.2-0.3-0.1-0.6,0.2-0.8c0.2-0.1,20.2-11.4,21.5-12.2c1.2-0.7,1.3-1.8,1.1-2.3c-0.1-0.3,0.1-0.6,0.4-0.7
						c0.3-0.1,0.6,0.1,0.7,0.4C325.9,142.7,326,143.2,325.8,143.8z"/>
				</g>
				<g>
					<path fill="#5FB2E4" d="M326.1,170.9c-0.2-0.8-0.8-1.5-1.7-2.1c-1.4-0.8-21.5-11.7-21.8-11.8c-0.3-0.2-0.6,0-0.8,0.2
						c-0.2,0.3,0,0.6,0.2,0.8c0.2,0.1,20.4,11.1,21.7,11.8c1.3,0.7,1.3,1.8,1.2,2.3c-0.1,0.3,0.1,0.6,0.4,0.7
						c0.3,0.1,0.6-0.1,0.7-0.4C326.2,172,326.2,171.5,326.1,170.9z"/>
				</g>
			</g>
			<g>
				<g>
					<path fill="#5FB2E4" d="M326.5,160.7c-0.3,0.7-0.9,1.4-1.9,1.9c-1.5,0.6-22.6,9.5-22.8,9.6c-0.3,0.1-0.6,0-0.8-0.3
						c-0.1-0.3,0-0.6,0.3-0.8c0.2-0.1,21.4-8.9,22.8-9.5c1.3-0.6,1.5-1.7,1.4-2.2c-0.1-0.3,0.2-0.6,0.5-0.7c0.3-0.1,0.6,0.1,0.7,0.5
						C326.8,159.6,326.7,160.2,326.5,160.7z"/>
				</g>
				<g>
					<path fill="#5FB2E4" d="M323.5,187.7c-0.1-0.8-0.6-1.6-1.5-2.2c-1.3-0.9-20-14.2-20.2-14.4c-0.3-0.2-0.6-0.1-0.8,0.1
						c-0.2,0.3-0.1,0.6,0.1,0.8c0.2,0.1,18.9,13.4,20.2,14.4c1.2,0.8,1.1,1.9,0.9,2.4c-0.1,0.3,0,0.6,0.3,0.8c0.3,0.1,0.6,0,0.8-0.3
						C323.5,188.8,323.6,188.3,323.5,187.7z"/>
				</g>
			</g>
			<g>
				<g>
					<path fill="#5FB2E4" d="M325.1,177.6c-0.4,0.7-1.1,1.3-2.1,1.6c-1.5,0.4-23.6,6.7-23.8,6.7c-0.3,0.1-0.6-0.1-0.7-0.4
						c-0.1-0.3,0.1-0.6,0.4-0.7c0.2-0.1,22.3-6.3,23.8-6.7c1.4-0.4,1.7-1.5,1.7-2c0-0.3,0.2-0.6,0.5-0.6c0.3,0,0.6,0.2,0.6,0.5
						C325.5,176.6,325.4,177.1,325.1,177.6z"/>
				</g>
				<g>
					<path fill="#5FB2E4" d="M318.9,204c0-0.8-0.4-1.7-1.2-2.4c-1.2-1.1-18.1-16.5-18.3-16.7c-0.2-0.2-0.6-0.2-0.8,0
						c-0.2,0.2-0.2,0.6,0,0.8c0.2,0.2,17.1,15.6,18.3,16.7c1.1,1,0.9,2.1,0.6,2.5c-0.2,0.3-0.1,0.6,0.2,0.8c0.3,0.2,0.6,0.1,0.8-0.2
						C318.8,205.2,318.9,204.6,318.9,204z"/>
				</g>
			</g>
			<g>
				<g>
					<path fill="#5FB2E4" d="M321.8,194.2c-0.5,0.6-1.2,1.2-2.3,1.4c-1.6,0.3-24.2,3.8-24.5,3.8c-0.3,0-0.6-0.2-0.7-0.5
						c0-0.3,0.2-0.6,0.5-0.7c0.2,0,22.9-3.6,24.5-3.8c1.4-0.2,1.9-1.2,1.9-1.8c0-0.3,0.3-0.6,0.6-0.5c0.3,0,0.6,0.3,0.5,0.6
						C322.3,193.2,322.1,193.8,321.8,194.2z"/>
				</g>
				<g>
					<path fill="#5FB2E4" d="M312.4,219.7c0.1-0.8-0.2-1.7-0.9-2.5c-1-1.2-16-18.6-16.2-18.8c-0.2-0.2-0.6-0.3-0.8-0.1
						c-0.2,0.2-0.3,0.6-0.1,0.8c0.2,0.2,15.1,17.5,16.2,18.8c0.9,1.1,0.6,2.1,0.3,2.6c-0.2,0.3-0.1,0.6,0.1,0.8
						c0.3,0.2,0.6,0.1,0.8-0.1C312.1,220.8,312.3,220.3,312.4,219.7z"/>
				</g>
			</g>
			<g>
				<g>
					<path fill="#5FB2E4" d="M316.4,210.3c-0.5,0.6-1.4,1-2.5,1.1c-1.6,0.1-24.5,0.8-24.7,0.9c-0.3,0-0.6-0.2-0.6-0.6
						c0-0.3,0.2-0.6,0.6-0.6c0.2,0,23.2-0.8,24.7-0.9c1.4-0.1,2-1,2.1-1.5c0.1-0.3,0.4-0.5,0.7-0.5c0.3,0.1,0.5,0.4,0.5,0.7
						C317.1,209.4,316.8,209.9,316.4,210.3z"/>
				</g>
				<g>
					<path fill="#5FB2E4" d="M304.1,234.5c0.2-0.8,0-1.7-0.6-2.6c-0.9-1.3-13.7-20.4-13.8-20.6c-0.2-0.3-0.5-0.3-0.8-0.2
						c-0.3,0.2-0.3,0.5-0.2,0.8c0.1,0.2,12.9,19.2,13.8,20.6c0.8,1.2,0.3,2.2,0,2.6c-0.2,0.2-0.2,0.6,0,0.8c0.2,0.2,0.6,0.2,0.8,0
						C303.7,235.6,303.9,235.1,304.1,234.5z"/>
				</g>
			</g>
			<g>
				<g>
					<path fill="#5FB2E4" d="M309.2,225.6c-0.6,0.5-1.5,0.9-2.6,0.8c-1.6-0.1-24.4-2.1-24.7-2.1c-0.3,0-0.6-0.3-0.5-0.6
						c0-0.3,0.3-0.6,0.6-0.5c0.2,0,23.1,2,24.7,2.1c1.4,0.1,2.1-0.8,2.2-1.3c0.1-0.3,0.4-0.5,0.7-0.4c0.3,0.1,0.5,0.4,0.4,0.7
						C309.9,224.8,309.6,225.3,309.2,225.6z"/>
				</g>
				<g>
					<path fill="#5FB2E4" d="M294,248.2c0.3-0.8,0.2-1.7-0.3-2.7c-0.7-1.4-11.1-21.9-11.2-22.1c-0.1-0.3-0.5-0.4-0.8-0.3
						c-0.3,0.1-0.4,0.5-0.3,0.8c0.1,0.2,10.5,20.6,11.2,22.1c0.6,1.3,0.1,2.2-0.3,2.5c-0.2,0.2-0.3,0.6-0.1,0.8
						c0.2,0.2,0.6,0.3,0.8,0.1C293.5,249.2,293.8,248.7,294,248.2z"/>
				</g>
			</g>
			<g>
				<g>
					<path fill="#5FB2E4" d="M300.1,240c-0.7,0.4-1.6,0.7-2.6,0.5c-1.6-0.3-24-5-24.2-5.1c-0.3-0.1-0.5-0.4-0.4-0.7
						c0.1-0.3,0.4-0.5,0.7-0.4c0.2,0,22.7,4.8,24.2,5.1c1.4,0.3,2.2-0.5,2.4-1c0.1-0.3,0.5-0.4,0.8-0.3c0.3,0.1,0.4,0.5,0.3,0.8
						C301,239.2,300.6,239.7,300.1,240z"/>
				</g>
				<g>
					<path fill="#5FB2E4" d="M282.4,260.5c0.3-0.7,0.4-1.6,0.1-2.7c-0.5-1.5-8.4-23-8.5-23.3c-0.1-0.3-0.4-0.5-0.7-0.3
						c-0.3,0.1-0.5,0.4-0.3,0.7c0.1,0.2,7.9,21.8,8.5,23.3c0.5,1.4-0.2,2.2-0.6,2.5c-0.3,0.2-0.4,0.5-0.2,0.8
						c0.2,0.3,0.5,0.4,0.8,0.2C281.7,261.5,282.1,261,282.4,260.5z"/>
				</g>
			</g>
			<g>
				<g>
					<path fill="#5FB2E4" d="M289.5,253.1c-0.7,0.4-1.6,0.5-2.7,0.1c-1.5-0.5-23.2-7.9-23.4-8c-0.3-0.1-0.5-0.4-0.4-0.7
						c0.1-0.3,0.4-0.5,0.7-0.4c0.2,0.1,21.9,7.5,23.4,8c1.4,0.5,2.2-0.2,2.5-0.7c0.2-0.3,0.5-0.4,0.8-0.2c0.3,0.2,0.4,0.5,0.2,0.8
						C290.4,252.5,290,252.9,289.5,253.1z"/>
				</g>
				<g>
					<path fill="#5FB2E4" d="M269.3,271.4c0.4-0.7,0.6-1.6,0.4-2.6c-0.4-1.6-5.6-23.9-5.6-24.1c-0.1-0.3-0.4-0.5-0.7-0.4
						c-0.3,0.1-0.5,0.4-0.4,0.7c0.1,0.2,5.3,22.6,5.6,24.1c0.3,1.4-0.5,2.2-0.9,2.4c-0.3,0.1-0.4,0.5-0.3,0.8
						c0.1,0.3,0.5,0.4,0.8,0.3C268.6,272.2,269,271.9,269.3,271.4z"/>
				</g>
			</g>
			<g>
				<g>
					<path fill="#5FB2E4" d="M277.3,264.9c-0.7,0.3-1.7,0.3-2.7-0.2c-1.4-0.7-22.1-10.6-22.3-10.7c-0.3-0.1-0.4-0.5-0.3-0.8
						c0.1-0.3,0.5-0.4,0.8-0.3c0.2,0.1,20.9,10,22.3,10.7c1.3,0.6,2.2,0,2.5-0.4c0.2-0.3,0.6-0.3,0.8-0.1c0.3,0.2,0.3,0.6,0.1,0.8
						C278.2,264.4,277.8,264.7,277.3,264.9z"/>
				</g>
				<g>
					<path fill="#5FB2E4" d="M255.1,280.6c0.5-0.6,0.8-1.5,0.7-2.6c-0.2-1.6-2.7-24.4-2.7-24.6c0-0.3-0.3-0.5-0.6-0.5
						c-0.3,0-0.5,0.3-0.5,0.6c0,0.2,2.5,23,2.7,24.6c0.1,1.4-0.7,2.1-1.2,2.3c-0.3,0.1-0.5,0.4-0.4,0.7c0.1,0.3,0.4,0.5,0.7,0.4
						C254.3,281.4,254.7,281.1,255.1,280.6z"/>
				</g>
			</g>
			<g>
				<g>
					<path fill="#5FB2E4" d="M263.7,275.2c-0.8,0.2-1.7,0.1-2.6-0.5c-1.3-0.8-20.7-13.2-20.9-13.3c-0.3-0.2-0.4-0.5-0.2-0.8
						c0.2-0.3,0.5-0.3,0.8-0.2c0.2,0.1,19.5,12.5,20.9,13.3c1.2,0.8,2.2,0.3,2.6-0.1c0.2-0.2,0.6-0.2,0.8,0c0.2,0.2,0.2,0.6,0,0.8
						C264.8,274.8,264.3,275,263.7,275.2z"/>
				</g>
				<g>
					<path fill="#5FB2E4" d="M239.8,288.1c0.6-0.6,1-1.4,1-2.5c0-1.6,0.3-24.5,0.3-24.8c0-0.3-0.3-0.6-0.6-0.6
						c-0.3,0-0.6,0.3-0.6,0.6c0,0.2-0.3,23.2-0.3,24.8c0,1.4-1,2-1.5,2.1c-0.3,0.1-0.5,0.4-0.5,0.7c0.1,0.3,0.4,0.5,0.7,0.5
						C238.9,288.7,239.4,288.5,239.8,288.1z"/>
				</g>
			</g>
			<g>
				<g>
					<path fill="#5FB2E4" d="M249.1,283.7c-0.8,0.1-1.7-0.1-2.5-0.8c-1.2-1-18.9-15.6-19.1-15.7c-0.2-0.2-0.3-0.6-0.1-0.8
						c0.2-0.2,0.6-0.3,0.8-0.1c0.2,0.2,17.9,14.7,19.1,15.7c1.1,0.9,2.2,0.6,2.6,0.2c0.2-0.2,0.6-0.2,0.8,0.1
						c0.2,0.3,0.2,0.6-0.1,0.8C250.2,283.4,249.7,283.6,249.1,283.7z"/>
				</g>
				<g>
					<path fill="#5FB2E4" d="M223.8,293.6c0.6-0.5,1.2-1.3,1.3-2.3c0.2-1.6,3.2-24.3,3.3-24.5c0-0.3-0.2-0.6-0.5-0.7
						c-0.3,0-0.6,0.2-0.7,0.5c0,0.2-3,23-3.3,24.5c-0.2,1.4-1.2,1.9-1.7,1.9c-0.3,0-0.6,0.3-0.5,0.6c0,0.3,0.3,0.6,0.6,0.5
						C222.8,294.2,223.3,294,223.8,293.6z"/>
				</g>
			</g>
			<g>
				<g>
					<path fill="#5FB2E4" d="M233.5,290.4c-0.8,0-1.7-0.3-2.4-1.1c-1.1-1.1-16.9-17.7-17.1-17.9c-0.2-0.2-0.2-0.6,0-0.8
						c0.2-0.2,0.6-0.2,0.8,0c0.2,0.2,16,16.8,17.1,17.9c1,1,2.1,0.8,2.5,0.5c0.3-0.2,0.6-0.1,0.8,0.2c0.2,0.3,0.1,0.6-0.2,0.8
						C234.6,290.2,234.1,290.4,233.5,290.4z"/>
				</g>
				<g>
					<path fill="#5FB2E4" d="M207.2,297.2c0.7-0.4,1.3-1.1,1.6-2.2c0.4-1.5,6.1-23.7,6.2-24c0.1-0.3-0.1-0.6-0.4-0.7
						c-0.3-0.1-0.6,0.1-0.7,0.4c-0.1,0.2-5.8,22.4-6.2,24c-0.4,1.4-1.4,1.7-1.9,1.7c-0.3,0-0.6,0.2-0.6,0.6c0,0.3,0.2,0.6,0.6,0.6
						C206.2,297.6,206.7,297.5,207.2,297.2z"/>
				</g>
			</g>
			<g>
				<g>
					<path fill="#5FB2E4" d="M217.2,295.2c-0.8-0.1-1.6-0.5-2.3-1.4c-1-1.3-14.7-19.6-14.8-19.8c-0.2-0.3-0.1-0.6,0.1-0.8
						c0.3-0.2,0.6-0.1,0.8,0.1c0.1,0.2,13.8,18.6,14.8,19.8c0.9,1.1,2,1.1,2.4,0.8c0.3-0.1,0.6,0,0.8,0.3c0.1,0.3,0,0.6-0.3,0.8
						C218.4,295.2,217.8,295.2,217.2,295.2z"/>
				</g>
				<g>
					<path fill="#5FB2E4" d="M190.3,298.8c0.7-0.3,1.4-0.9,1.8-2c0.6-1.5,8.9-22.8,9-23.1c0.1-0.3,0-0.6-0.3-0.8
						c-0.3-0.1-0.6,0-0.8,0.3c-0.1,0.2-8.4,21.6-9,23c-0.5,1.3-1.6,1.5-2.1,1.5c-0.3-0.1-0.6,0.2-0.7,0.5c-0.1,0.3,0.2,0.6,0.5,0.7
						C189.2,299.1,189.8,299,190.3,298.8z"/>
				</g>
			</g>
			<g>
				<g>
					<path fill="#5FB2E4" d="M200.5,298c-0.8-0.2-1.5-0.7-2.1-1.7c-0.8-1.4-12.2-21.3-12.3-21.5c-0.2-0.3-0.1-0.6,0.2-0.8
						c0.3-0.2,0.6-0.1,0.8,0.2c0.1,0.2,11.5,20.1,12.3,21.5c0.7,1.2,1.8,1.3,2.3,1.1c0.3-0.1,0.6,0.1,0.7,0.4
						c0.1,0.3-0.1,0.6-0.4,0.7C201.6,298.1,201.1,298.1,200.5,298z"/>
				</g>
				<g>
					<path fill="#5FB2E4" d="M173.3,298.3c0.8-0.2,1.5-0.8,2-1.7c0.8-1.4,11.6-21.6,11.7-21.8c0.2-0.3,0-0.6-0.2-0.8
						c-0.3-0.2-0.6,0-0.8,0.2c-0.1,0.2-11,20.4-11.7,21.8c-0.7,1.3-1.8,1.3-2.3,1.2c-0.3-0.1-0.6,0.1-0.7,0.4
						c-0.1,0.3,0.1,0.6,0.4,0.7C172.2,298.5,172.8,298.5,173.3,298.3z"/>
				</g>
			</g>
			<g>
				<g>
					<path fill="#5FB2E4" d="M183.6,298.7c-0.7-0.3-1.4-0.9-1.9-1.9c-0.6-1.5-9.6-22.6-9.6-22.8c-0.1-0.3,0-0.6,0.3-0.8
						c0.3-0.1,0.6,0,0.8,0.3c0.1,0.2,9,21.3,9.6,22.8c0.6,1.3,1.7,1.5,2.2,1.4c0.3-0.1,0.6,0.1,0.7,0.5c0.1,0.3-0.1,0.6-0.5,0.7
						C184.7,299,184.1,298.9,183.6,298.7z"/>
				</g>
				<g>
					<path fill="#5FB2E4" d="M156.6,295.8c0.8-0.1,1.6-0.6,2.2-1.5c0.9-1.3,14.1-20,14.3-20.2c0.2-0.3,0.1-0.6-0.1-0.8
						c-0.3-0.2-0.6-0.1-0.8,0.1c-0.1,0.2-13.3,18.9-14.3,20.2c-0.8,1.2-1.9,1.1-2.4,0.9c-0.3-0.1-0.6,0-0.8,0.3
						c-0.1,0.3,0,0.6,0.3,0.8C155.4,295.8,156,295.9,156.6,295.8z"/>
				</g>
			</g>
			<g>
				<g>
					<path fill="#5FB2E4" d="M166.7,297.4c-0.7-0.4-1.3-1.1-1.6-2.1c-0.4-1.5-6.8-23.6-6.8-23.8c-0.1-0.3,0.1-0.6,0.4-0.7
						c0.3-0.1,0.6,0.1,0.7,0.4c0.1,0.2,6.4,22.3,6.8,23.8c0.4,1.4,1.5,1.7,2,1.6c0.3,0,0.6,0.2,0.6,0.5c0,0.3-0.2,0.6-0.5,0.6
						C167.7,297.8,167.2,297.7,166.7,297.4z"/>
				</g>
				<g>
					<path fill="#5FB2E4" d="M140.2,291.3c0.8,0,1.7-0.4,2.4-1.2c1.1-1.2,16.4-18.2,16.6-18.4c0.2-0.2,0.2-0.6,0-0.8
						c-0.2-0.2-0.6-0.2-0.8,0c-0.2,0.2-15.5,17.2-16.6,18.4c-1,1.1-2.1,0.9-2.5,0.6c-0.3-0.2-0.6-0.1-0.8,0.2
						c-0.2,0.3-0.1,0.6,0.2,0.8C139.1,291.2,139.6,291.3,140.2,291.3z"/>
				</g>
			</g>
			<g>
				<g>
					<path fill="#5FB2E4" d="M150,294.1c-0.6-0.5-1.2-1.2-1.4-2.3c-0.3-1.6-3.9-24.2-3.9-24.4c-0.1-0.3,0.2-0.6,0.5-0.7
						c0.3-0.1,0.6,0.2,0.7,0.5c0,0.2,3.7,22.9,3.9,24.4c0.2,1.4,1.3,1.8,1.8,1.9c0.3,0,0.6,0.3,0.6,0.6c0,0.3-0.3,0.6-0.6,0.6
						C151,294.6,150.5,294.5,150,294.1z"/>
				</g>
				<g>
					<path fill="#5FB2E4" d="M124.5,284.9c0.8,0.1,1.7-0.2,2.5-0.9c1.2-1,18.5-16.1,18.7-16.2c0.2-0.2,0.3-0.6,0.1-0.8
						c-0.2-0.2-0.6-0.3-0.8-0.1c-0.2,0.2-17.5,15.2-18.7,16.2c-1.1,0.9-2.1,0.6-2.6,0.3c-0.3-0.2-0.6-0.1-0.8,0.1
						c-0.2,0.3-0.1,0.6,0.1,0.8C123.4,284.6,123.9,284.8,124.5,284.9z"/>
				</g>
			</g>
			<g>
				<g>
					<path fill="#5FB2E4" d="M133.9,288.8c-0.6-0.5-1-1.4-1.1-2.4c-0.1-1.6-0.9-24.5-1-24.7c0-0.3,0.2-0.6,0.6-0.6
						c0.3,0,0.6,0.2,0.6,0.6c0,0.2,0.9,23.2,1,24.7c0.1,1.4,1,2,1.5,2.1c0.3,0.1,0.5,0.4,0.5,0.7c-0.1,0.3-0.4,0.5-0.7,0.5
						C134.9,289.5,134.4,289.2,133.9,288.8z"/>
				</g>
				<g>
					<path fill="#5FB2E4" d="M109.7,276.6c0.8,0.2,1.7,0,2.6-0.6c1.3-0.9,20.3-13.7,20.5-13.9c0.3-0.2,0.3-0.5,0.2-0.8
						c-0.2-0.3-0.5-0.3-0.8-0.2c-0.2,0.1-19.2,13-20.5,13.9c-1.2,0.8-2.2,0.4-2.6,0c-0.2-0.2-0.6-0.2-0.8,0c-0.2,0.2-0.2,0.6,0,0.8
						C108.6,276.2,109.1,276.5,109.7,276.6z"/>
				</g>
			</g>
			<g>
				<g>
					<path fill="#5FB2E4" d="M118.6,281.7c-0.5-0.6-0.9-1.5-0.8-2.6c0.1-1.6,2-24.4,2-24.7c0-0.3,0.3-0.6,0.6-0.5
						c0.3,0,0.6,0.3,0.5,0.6c0,0.2-1.9,23.1-2,24.7c-0.1,1.4,0.8,2.1,1.3,2.2c0.3,0.1,0.5,0.4,0.4,0.7c-0.1,0.3-0.4,0.5-0.7,0.4
						C119.4,282.4,118.9,282.1,118.6,281.7z"/>
				</g>
				<g>
					<path fill="#5FB2E4" d="M96,266.6c0.8,0.2,1.7,0.2,2.7-0.3c1.4-0.7,21.8-11.2,22-11.3c0.3-0.1,0.4-0.5,0.3-0.8
						c-0.1-0.3-0.5-0.4-0.8-0.2c-0.2,0.1-20.6,10.6-22,11.3c-1.3,0.6-2.2,0.1-2.5-0.3c-0.2-0.2-0.6-0.3-0.8-0.1
						c-0.2,0.2-0.3,0.6-0.1,0.8C95,266.1,95.4,266.4,96,266.6z"/>
				</g>
			</g>
			<g>
				<g>
					<path fill="#5FB2E4" d="M104.2,272.7c-0.4-0.7-0.7-1.6-0.5-2.6c0.3-1.6,4.9-24,5-24.3c0.1-0.3,0.4-0.5,0.7-0.5
						c0.3,0.1,0.5,0.4,0.5,0.7c0,0.2-4.7,22.7-5,24.2c-0.3,1.4,0.5,2.2,1,2.4c0.3,0.1,0.4,0.5,0.3,0.8c-0.1,0.3-0.5,0.4-0.8,0.3
						C104.9,273.5,104.5,273.2,104.2,272.7z"/>
				</g>
				<g>
					<path fill="#5FB2E4" d="M83.6,255c0.7,0.3,1.6,0.4,2.7,0.1c1.5-0.5,23-8.5,23.2-8.6c0.3-0.1,0.5-0.4,0.3-0.7
						c-0.1-0.3-0.4-0.5-0.7-0.3c-0.2,0.1-21.7,8-23.2,8.6c-1.4,0.5-2.2-0.2-2.5-0.6c-0.2-0.3-0.5-0.3-0.8-0.2
						c-0.3,0.2-0.4,0.5-0.2,0.8C82.6,254.4,83,254.7,83.6,255z"/>
				</g>
			</g>
			<g>
				<g>
					<path fill="#5FB2E4" d="M91,262.1c-0.4-0.7-0.5-1.6-0.1-2.7c0.5-1.5,7.8-23.3,7.9-23.5c0.1-0.3,0.4-0.5,0.7-0.4
						c0.3,0.1,0.5,0.4,0.4,0.7c-0.1,0.2-7.4,22-7.9,23.5c-0.4,1.4,0.3,2.2,0.7,2.5c0.3,0.2,0.4,0.5,0.2,0.8
						c-0.2,0.3-0.5,0.4-0.8,0.2C91.6,263,91.2,262.6,91,262.1z"/>
				</g>
				<g>
					<path fill="#5FB2E4" d="M72.6,242c0.7,0.4,1.6,0.6,2.6,0.4c1.6-0.4,23.9-5.7,24.1-5.7c0.3-0.1,0.5-0.4,0.4-0.7
						c-0.1-0.3-0.4-0.5-0.7-0.4c-0.2,0.1-22.5,5.4-24.1,5.7c-1.4,0.3-2.2-0.5-2.4-0.9c-0.1-0.3-0.5-0.4-0.8-0.3
						c-0.3,0.1-0.4,0.5-0.3,0.8C71.8,241.3,72.2,241.7,72.6,242z"/>
				</g>
			</g>
			<g>
				<g>
					<path fill="#5FB2E4" d="M79.1,249.9c-0.3-0.7-0.3-1.7,0.2-2.7c0.7-1.4,10.5-22.1,10.6-22.4c0.1-0.3,0.5-0.4,0.8-0.3
						c0.3,0.1,0.4,0.5,0.3,0.8c-0.1,0.2-10,20.9-10.6,22.4c-0.6,1.3,0,2.2,0.4,2.5c0.3,0.2,0.3,0.6,0.1,0.8
						c-0.2,0.3-0.6,0.3-0.8,0.1C79.7,250.9,79.3,250.4,79.1,249.9z"/>
				</g>
				<g>
					<path fill="#5FB2E4" d="M63.4,227.8c0.6,0.5,1.5,0.8,2.6,0.7c1.6-0.2,24.4-2.8,24.6-2.8c0.3,0,0.5-0.3,0.5-0.6
						c0-0.3-0.3-0.5-0.6-0.5c-0.2,0-23,2.6-24.6,2.8c-1.4,0.2-2.1-0.7-2.3-1.2c-0.1-0.3-0.4-0.5-0.7-0.4c-0.3,0.1-0.5,0.4-0.4,0.7
						C62.6,227,62.9,227.4,63.4,227.8z"/>
				</g>
			</g>
			<g>
				<g>
					<path fill="#5FB2E4" d="M68.9,236.4c-0.2-0.8-0.1-1.7,0.5-2.6c0.8-1.4,13.1-20.7,13.2-20.9c0.2-0.3,0.5-0.4,0.8-0.2
						c0.3,0.2,0.4,0.5,0.2,0.8c-0.1,0.2-12.4,19.6-13.2,20.9c-0.8,1.2-0.3,2.2,0.1,2.6c0.2,0.2,0.2,0.6,0,0.8
						c-0.2,0.2-0.6,0.2-0.8,0C69.3,237.5,69,237,68.9,236.4z"/>
				</g>
				<g>
					<path fill="#5FB2E4" d="M55.9,212.6c0.6,0.6,1.4,1,2.5,1c1.6,0,24.5,0.2,24.8,0.2c0.3,0,0.6-0.3,0.6-0.6c0-0.3-0.3-0.6-0.6-0.6
						c-0.2,0-23.2-0.2-24.8-0.2c-1.4,0-2-1-2.1-1.5c-0.1-0.3-0.4-0.5-0.7-0.5c-0.3,0.1-0.5,0.4-0.5,0.7
						C55.2,211.7,55.5,212.2,55.9,212.6z"/>
				</g>
			</g>
			<g>
				<g>
					<path fill="#5FB2E4" d="M60.3,221.8c-0.1-0.8,0.1-1.7,0.8-2.6c1-1.2,15.5-19,15.7-19.2c0.2-0.2,0.6-0.3,0.8-0.1
						c0.2,0.2,0.3,0.6,0.1,0.8C77.5,201,63,218.7,62,220c-0.9,1.1-0.5,2.2-0.2,2.6c0.2,0.2,0.2,0.6-0.1,0.8
						c-0.2,0.2-0.6,0.2-0.8-0.1C60.6,222.9,60.3,222.4,60.3,221.8z"/>
				</g>
				<g>
					<path fill="#5FB2E4" d="M50.2,196.6c0.5,0.6,1.3,1.1,2.3,1.3c1.6,0.2,24.3,3.1,24.6,3.2c0.3,0,0.6-0.2,0.7-0.5
						c0-0.3-0.2-0.6-0.5-0.6c-0.2,0-23-3-24.6-3.2c-1.4-0.2-1.9-1.2-1.9-1.7c0-0.3-0.3-0.6-0.6-0.5c-0.3,0-0.6,0.3-0.5,0.6
						C49.7,195.6,49.9,196.1,50.2,196.6z"/>
				</g>
			</g>
			<g>
				<g>
					<path fill="#5FB2E4" d="M53.5,206.3c0-0.8,0.3-1.7,1.1-2.4c1.1-1.1,17.7-17,17.8-17.2c0.2-0.2,0.6-0.2,0.8,0
						c0.2,0.2,0.2,0.6,0,0.8c-0.2,0.2-16.7,16.1-17.8,17.2c-1,1-0.8,2.1-0.5,2.5c0.2,0.3,0.1,0.6-0.2,0.8c-0.3,0.2-0.6,0.1-0.8-0.2
						C53.7,207.4,53.5,206.8,53.5,206.3z"/>
				</g>
				<g>
					<path fill="#5FB2E4" d="M46.6,180c0.4,0.7,1.1,1.3,2.2,1.6c1.5,0.4,23.8,6,24,6.1c0.3,0.1,0.6-0.1,0.7-0.4
						c0.1-0.3-0.1-0.6-0.4-0.7c-0.2-0.1-22.5-5.7-24-6.1c-1.4-0.4-1.7-1.4-1.7-1.9c0-0.3-0.2-0.6-0.6-0.6c-0.3,0-0.6,0.2-0.6,0.6
						C46.1,179,46.3,179.5,46.6,180z"/>
				</g>
			</g>
			<g>
				<g>
					<path fill="#5FB2E4" d="M48.7,190c0.1-0.8,0.5-1.6,1.4-2.3c1.3-1,19.6-14.7,19.8-14.9c0.3-0.2,0.6-0.1,0.8,0.1
						c0.2,0.3,0.1,0.6-0.1,0.8c-0.2,0.1-18.5,13.9-19.8,14.9c-1.1,0.9-1,2-0.8,2.4c0.1,0.3,0,0.6-0.3,0.8c-0.3,0.1-0.6,0-0.8-0.3
						C48.7,191.1,48.6,190.6,48.7,190z"/>
				</g>
				<g>
					<path fill="#5FB2E4" d="M44.9,163.1c0.3,0.7,0.9,1.4,2,1.8c1.5,0.6,22.9,8.8,23.1,8.9c0.3,0.1,0.6,0,0.8-0.3
						c0.1-0.3,0-0.6-0.3-0.7c-0.2-0.1-21.6-8.4-23.1-8.9c-1.3-0.5-1.5-1.6-1.5-2.1c0-0.3-0.2-0.6-0.5-0.7c-0.3-0.1-0.6,0.2-0.7,0.5
						C44.6,162,44.7,162.6,44.9,163.1z"/>
				</g>
			</g>
			<g>
				<g>
					<path fill="#5FB2E4" d="M45.8,173.3c0.2-0.8,0.7-1.5,1.7-2.1c1.4-0.8,21.2-12.3,21.4-12.4c0.3-0.2,0.6-0.1,0.8,0.2
						c0.2,0.3,0.1,0.6-0.2,0.8c-0.2,0.1-20.1,11.6-21.4,12.4c-1.2,0.7-1.3,1.8-1.1,2.3c0.1,0.3-0.1,0.6-0.4,0.7
						c-0.3,0.1-0.6-0.1-0.7-0.4C45.7,174.4,45.7,173.9,45.8,173.3z"/>
				</g>
				<g>
					<path fill="#5FB2E4" d="M45.3,146.1c0.2,0.8,0.8,1.5,1.7,2c1.4,0.8,21.6,11.5,21.8,11.6c0.3,0.2,0.6,0,0.8-0.2
						c0.1-0.3,0-0.6-0.2-0.8c-0.2-0.1-20.5-10.9-21.8-11.6c-1.3-0.7-1.3-1.8-1.2-2.3c0.1-0.3-0.1-0.6-0.4-0.7
						c-0.3-0.1-0.6,0.1-0.7,0.4C45.2,145,45.2,145.6,45.3,146.1z"/>
				</g>
			</g>
			<g>
				<g>
					<path fill="#5FB2E4" d="M45,156.4c0.3-0.7,0.9-1.4,1.9-1.9c1.5-0.6,22.5-9.6,22.8-9.7c0.3-0.1,0.6,0,0.8,0.3
						c0.1,0.3,0,0.6-0.3,0.8c-0.2,0.1-21.3,9.1-22.8,9.7c-1.3,0.6-1.5,1.7-1.4,2.2c0.1,0.3-0.1,0.6-0.5,0.7
						c-0.3,0.1-0.6-0.1-0.7-0.5C44.7,157.5,44.8,156.9,45,156.4z"/>
				</g>
				<g>
					<path fill="#5FB2E4" d="M47.8,129.3c0.1,0.8,0.6,1.6,1.5,2.2c1.3,0.9,20.1,14.1,20.3,14.2c0.3,0.2,0.6,0.1,0.8-0.1
						c0.2-0.3,0.1-0.6-0.1-0.8c-0.2-0.1-19-13.3-20.3-14.2c-1.2-0.8-1.1-1.9-0.9-2.4c0.1-0.3,0-0.6-0.3-0.8c-0.3-0.1-0.6,0-0.8,0.3
						C47.7,128.2,47.7,128.8,47.8,129.3z"/>
				</g>
			</g>
			<g>
				<g>
					<path fill="#5FB2E4" d="M46.2,139.5c0.4-0.7,1.1-1.3,2.1-1.6c1.5-0.5,23.5-6.9,23.8-6.9c0.3-0.1,0.6,0.1,0.7,0.4
						c0.1,0.3-0.1,0.6-0.4,0.7c-0.2,0.1-22.2,6.5-23.8,6.9c-1.4,0.4-1.7,1.5-1.6,2c0,0.3-0.2,0.6-0.5,0.6c-0.3,0-0.6-0.2-0.6-0.5
						C45.8,140.5,45.9,140,46.2,139.5z"/>
				</g>
				<g>
					<path fill="#5FB2E4" d="M52.2,113c0,0.8,0.4,1.7,1.2,2.4c1.2,1.1,18.3,16.4,18.4,16.5c0.2,0.2,0.6,0.2,0.8,0
						c0.2-0.2,0.2-0.6,0-0.8c-0.2-0.2-17.3-15.5-18.4-16.5c-1.1-1-0.9-2.1-0.6-2.5c0.2-0.3,0.1-0.6-0.2-0.8
						c-0.3-0.2-0.6-0.1-0.8,0.2C52.3,111.8,52.2,112.4,52.2,113z"/>
				</g>
			</g>
			<g>
				<g>
					<path fill="#5FB2E4" d="M49.4,122.8c0.5-0.6,1.2-1.2,2.3-1.4c1.6-0.3,24.2-4,24.4-4c0.3-0.1,0.6,0.2,0.7,0.5
						c0.1,0.3-0.2,0.6-0.5,0.7c-0.2,0-22.9,3.8-24.4,4c-1.4,0.2-1.8,1.3-1.9,1.8c0,0.3-0.3,0.6-0.6,0.6c-0.3,0-0.6-0.3-0.6-0.6
						C48.9,123.8,49.1,123.3,49.4,122.8z"/>
				</g>
				<g>
					<path fill="#5FB2E4" d="M58.6,97.2c-0.1,0.8,0.2,1.7,0.9,2.5c1,1.2,16.2,18.4,16.3,18.6c0.2,0.2,0.6,0.3,0.8,0.1
						c0.2-0.2,0.3-0.6,0.1-0.8c-0.2-0.2-15.3-17.4-16.3-18.6c-0.9-1.1-0.6-2.1-0.3-2.5c0.2-0.3,0.1-0.6-0.1-0.8
						c-0.3-0.2-0.6-0.1-0.8,0.1C58.8,96.1,58.6,96.7,58.6,97.2z"/>
				</g>
			</g>
			<g>
				<g>
					<path fill="#5FB2E4" d="M54.6,106.7c0.5-0.6,1.4-1,2.4-1.1c1.6-0.1,24.5-1,24.7-1.1c0.3,0,0.6,0.2,0.6,0.6
						c0,0.3-0.2,0.6-0.6,0.6c-0.2,0-23.1,1-24.7,1.1c-1.4,0.1-2,1-2.1,1.5c-0.1,0.3-0.4,0.5-0.7,0.5c-0.3-0.1-0.5-0.4-0.5-0.7
						C54,107.6,54.3,107.1,54.6,106.7z"/>
				</g>
				<g>
					<path fill="#5FB2E4" d="M66.8,82.4c-0.2,0.8,0,1.7,0.6,2.6c0.9,1.3,13.8,20.2,14,20.5c0.2,0.3,0.5,0.3,0.8,0.2
						c0.3-0.2,0.3-0.5,0.2-0.8c-0.1-0.2-13.1-19.1-14-20.4c-0.8-1.2-0.4-2.2,0-2.6c0.2-0.2,0.2-0.6,0-0.8c-0.2-0.2-0.6-0.2-0.8,0
						C67.2,81.3,66.9,81.8,66.8,82.4z"/>
				</g>
			</g>
			<g>
				<g>
					<path fill="#5FB2E4" d="M61.8,91.3c0.6-0.5,1.5-0.9,2.6-0.8c1.6,0.1,24.4,1.9,24.7,1.9c0.3,0,0.6,0.3,0.5,0.6
						c0,0.3-0.3,0.6-0.6,0.5c-0.2,0-23.1-1.8-24.7-1.9c-1.4-0.1-2.1,0.8-2.2,1.3c-0.1,0.3-0.4,0.5-0.7,0.4c-0.3-0.1-0.5-0.4-0.4-0.7
						C61,92.1,61.3,91.7,61.8,91.3z"/>
				</g>
				<g>
					<path fill="#5FB2E4" d="M76.8,68.6c-0.2,0.8-0.2,1.7,0.3,2.7c0.7,1.4,11.3,21.8,11.4,22c0.1,0.3,0.5,0.4,0.8,0.2
						c0.3-0.1,0.4-0.5,0.2-0.8c-0.1-0.2-10.7-20.6-11.4-22c-0.7-1.3-0.1-2.2,0.3-2.6c0.2-0.2,0.3-0.6,0.1-0.8
						c-0.2-0.2-0.6-0.3-0.8-0.1C77.3,67.6,76.9,68.1,76.8,68.6z"/>
				</g>
			</g>
			<g>
				<g>
					<path fill="#5FB2E4" d="M70.7,76.9c0.7-0.4,1.6-0.7,2.6-0.5c1.6,0.3,24,4.8,24.3,4.9c0.3,0.1,0.5,0.4,0.5,0.7
						c-0.1,0.3-0.4,0.5-0.7,0.5c-0.2,0-22.7-4.6-24.3-4.9c-1.4-0.3-2.2,0.5-2.4,1c-0.1,0.3-0.5,0.4-0.8,0.3
						c-0.3-0.1-0.4-0.5-0.3-0.8C69.8,77.6,70.2,77.2,70.7,76.9z"/>
				</g>
				<g>
					<path fill="#5FB2E4" d="M88.3,56.2c-0.3,0.7-0.4,1.6,0,2.7c0.5,1.5,8.6,23,8.7,23.2c0.1,0.3,0.4,0.5,0.7,0.3
						c0.3-0.1,0.5-0.4,0.3-0.7c-0.1-0.2-8.1-21.7-8.7-23.2c-0.5-1.4,0.2-2.2,0.6-2.5c0.3-0.2,0.3-0.5,0.2-0.8
						c-0.2-0.3-0.5-0.3-0.8-0.2C88.9,55.2,88.5,55.7,88.3,56.2z"/>
				</g>
			</g>
			<g>
				<g>
					<path fill="#5FB2E4" d="M81.3,63.6c0.7-0.4,1.6-0.5,2.7-0.2c1.5,0.5,23.3,7.7,23.5,7.8c0.3,0.1,0.5,0.4,0.4,0.7
						c-0.1,0.3-0.4,0.5-0.7,0.4c-0.2-0.1-22-7.3-23.5-7.8c-1.4-0.4-2.2,0.3-2.5,0.7c-0.2,0.3-0.5,0.4-0.8,0.2
						c-0.3-0.2-0.4-0.5-0.2-0.8C80.3,64.3,80.7,63.9,81.3,63.6z"/>
				</g>
				<g>
					<path fill="#5FB2E4" d="M101.2,45.2c-0.4,0.7-0.6,1.6-0.4,2.7c0.4,1.5,5.8,23.8,5.8,24.1c0.1,0.3,0.4,0.5,0.7,0.4
						c0.3-0.1,0.5-0.4,0.4-0.7c-0.1-0.2-5.5-22.5-5.8-24.1c-0.3-1.4,0.4-2.2,0.9-2.4c0.3-0.1,0.4-0.5,0.3-0.8
						c-0.1-0.3-0.5-0.4-0.8-0.3C102,44.3,101.5,44.7,101.2,45.2z"/>
				</g>
			</g>
			<g>
				<g>
					<path fill="#5FB2E4" d="M93.4,51.7c0.7-0.3,1.7-0.3,2.7,0.2c1.4,0.7,22.2,10.4,22.4,10.5c0.3,0.1,0.4,0.5,0.3,0.8
						c-0.1,0.3-0.5,0.4-0.8,0.3c-0.2-0.1-21-9.9-22.4-10.5c-1.3-0.6-2.2,0-2.5,0.4c-0.2,0.3-0.6,0.3-0.8,0.1
						c-0.3-0.2-0.3-0.6-0.1-0.8C92.4,52.3,92.8,51.9,93.4,51.7z"/>
				</g>
				<g>
					<path fill="#5FB2E4" d="M115.4,35.9c-0.5,0.6-0.8,1.5-0.7,2.6c0.2,1.6,2.9,24.4,2.9,24.6c0,0.3,0.3,0.5,0.6,0.5
						c0.3,0,0.5-0.3,0.5-0.6c0-0.2-2.7-23-2.9-24.6c-0.2-1.4,0.7-2.1,1.2-2.3c0.3-0.1,0.5-0.4,0.4-0.7c-0.1-0.3-0.4-0.5-0.7-0.4
						C116.2,35.1,115.8,35.4,115.4,35.9z"/>
				</g>
			</g>
			<g>
				<g>
					<path fill="#5FB2E4" d="M106.8,41.4c0.8-0.2,1.7-0.1,2.6,0.5c1.4,0.8,20.8,13,21,13.1c0.3,0.2,0.4,0.5,0.2,0.8
						c-0.2,0.3-0.5,0.4-0.8,0.2c-0.2-0.1-19.6-12.3-21-13.1c-1.2-0.8-2.2-0.3-2.6,0.1c-0.2,0.2-0.6,0.2-0.8,0
						c-0.2-0.2-0.2-0.6,0-0.8C105.8,41.8,106.2,41.5,106.8,41.4z"/>
				</g>
				<g>
					<path fill="#5FB2E4" d="M130.6,28.3c-0.6,0.6-1,1.4-1,2.5c0,1.6-0.1,24.5-0.1,24.8c0,0.3,0.3,0.6,0.6,0.6
						c0.3,0,0.6-0.3,0.6-0.6c0-0.2,0.1-23.2,0.1-24.8c0-1.4,1-2,1.4-2.1c0.3-0.1,0.5-0.4,0.4-0.7c-0.1-0.3-0.4-0.5-0.7-0.4
						C131.5,27.6,131,27.9,130.6,28.3z"/>
				</g>
			</g>
			<g>
				<g>
					<path fill="#5FB2E4" d="M121.4,32.8c0.8-0.1,1.7,0.1,2.6,0.8c1.2,1,19.1,15.4,19.2,15.6c0.2,0.2,0.3,0.6,0.1,0.8
						c-0.2,0.2-0.6,0.3-0.8,0.1c-0.2-0.2-18-14.6-19.2-15.6c-1.1-0.9-2.2-0.5-2.6-0.2c-0.2,0.2-0.6,0.2-0.8-0.1
						c-0.2-0.2-0.2-0.6,0.1-0.8C120.3,33,120.8,32.8,121.4,32.8z"/>
				</g>
				<g>
					<path fill="#5FB2E4" d="M146.6,22.6c-0.6,0.5-1.1,1.3-1.3,2.3c-0.2,1.6-3,24.3-3.1,24.6c0,0.3,0.2,0.6,0.5,0.6
						c0.3,0,0.6-0.2,0.6-0.5c0-0.2,2.9-23,3.1-24.6c0.2-1.4,1.2-1.9,1.7-1.9c0.3,0,0.6-0.3,0.5-0.6c0-0.3-0.3-0.6-0.6-0.5
						C147.6,22.1,147,22.2,146.6,22.6z"/>
				</g>
			</g>
			<g>
				<g>
					<path fill="#5FB2E4" d="M136.9,25.9c0.8,0,1.7,0.3,2.4,1.1c1.1,1.1,17.1,17.6,17.2,17.8c0.2,0.2,0.2,0.6,0,0.8
						c-0.2,0.2-0.6,0.2-0.8,0c-0.2-0.2-16.1-16.6-17.2-17.8c-1-1-2.1-0.8-2.5-0.5c-0.3,0.2-0.6,0.1-0.8-0.2
						c-0.2-0.3-0.1-0.6,0.2-0.8C135.8,26.1,136.3,25.9,136.9,25.9z"/>
				</g>
				<g>
					<path fill="#5FB2E4" d="M163.1,18.9c-0.7,0.4-1.3,1.1-1.6,2.2c-0.4,1.5-5.9,23.8-6,24c-0.1,0.3,0.1,0.6,0.4,0.7
						c0.3,0.1,0.6-0.1,0.7-0.4c0.1-0.2,5.6-22.5,6-24c0.4-1.4,1.4-1.7,1.9-1.7c0.3,0,0.6-0.2,0.6-0.6c0-0.3-0.2-0.6-0.6-0.6
						C164.2,18.4,163.6,18.6,163.1,18.9z"/>
				</g>
			</g>
			<g>
				<g>
					<path fill="#5FB2E4" d="M153.1,21c0.8,0.1,1.6,0.5,2.3,1.4c1,1.3,14.8,19.5,15,19.7c0.2,0.3,0.1,0.6-0.1,0.8
						c-0.3,0.2-0.6,0.1-0.8-0.1c-0.1-0.2-14-18.5-15-19.7c-0.9-1.1-2-1-2.4-0.8c-0.3,0.1-0.6,0-0.8-0.3c-0.1-0.3,0-0.6,0.3-0.8
						C152,21,152.6,20.9,153.1,21z"/>
				</g>
				<g>
					<path fill="#5FB2E4" d="M180,17.2c-0.7,0.3-1.4,1-1.8,2c-0.6,1.5-8.8,22.9-8.8,23.1c-0.1,0.3,0,0.6,0.3,0.8
						c0.3,0.1,0.6,0,0.7-0.3c0.1-0.2,8.3-21.6,8.8-23.1c0.5-1.3,1.6-1.6,2.1-1.5c0.3,0,0.6-0.2,0.7-0.5c0-0.3-0.2-0.6-0.5-0.7
						C181.1,16.9,180.5,16.9,180,17.2z"/>
				</g>
			</g>
		</g>
	</g>
</g>
</svg>
